<svg viewBox="0 0 680 520" xmlns="http://www.w3.org/2000/svg">
<defs>
  <radialGradient id="mainGrad" cx="42%" cy="38%" r="60%">
    <stop offset="0%" stop-color="#d8eef5"/>
    <stop offset="55%" stop-color="#b8d8ec"/>
    <stop offset="100%" stop-color="#90bcd8"/>
  </radialGradient>
  <radialGradient id="leftGrad" cx="42%" cy="36%" r="58%">
    <stop offset="0%" stop-color="#cceee0"/>
    <stop offset="55%" stop-color="#a8d8c8"/>
    <stop offset="100%" stop-color="#80bfaa"/>
  </radialGradient>
  <radialGradient id="rightGrad" cx="42%" cy="36%" r="58%">
    <stop offset="0%" stop-color="#d8e8f8"/>
    <stop offset="55%" stop-color="#b8cef0"/>
    <stop offset="100%" stop-color="#90aee0"/>
  </radialGradient>
  <radialGradient id="shine" cx="35%" cy="28%" r="45%">
    <stop offset="0%" stop-color="white" stop-opacity="0.75"/>
    <stop offset="100%" stop-color="white" stop-opacity="0"/>
  </radialGradient>
</defs>

<ellipse cx="340" cy="444" rx="130" ry="14" fill="#90bcd8" opacity="0.13"/>

<circle cx="224" cy="318" r="88" fill="url(#leftGrad)"/>
<ellipse cx="207" cy="295" rx="34" ry="24" fill="url(#shine)"/>

<circle cx="456" cy="318" r="86" fill="url(#rightGrad)"/>
<ellipse cx="440" cy="295" rx="32" ry="22" fill="url(#shine)"/>

<circle cx="340" cy="330" r="130" fill="url(#mainGrad)"/>
<ellipse cx="315" cy="300" rx="58" ry="42" fill="url(#shine)"/>

<ellipse cx="305" cy="342" rx="10" ry="11" fill="#5a7080"/>
<ellipse cx="375" cy="342" rx="10" ry="11" fill="#5a7080"/>

<ellipse cx="301" cy="337" rx="3.5" ry="3" fill="white" opacity="0.9"/>
<ellipse cx="371" cy="337" rx="3.5" ry="3" fill="white" opacity="0.9"/>

<path d="M 316 372 Q 340 394 364 372" fill="none" stroke="#5a7080" stroke-width="5" stroke-linecap="round"/>

<ellipse cx="284" cy="368" rx="17" ry="10" fill="#e89090" opacity="0.30"/>
<ellipse cx="396" cy="368" rx="17" ry="10" fill="#e89090" opacity="0.30"/>
</svg>
